PathFileType	4	(X/Y/Z)	 s06c0103.trc
DataRate	CameraRate	NumFrames	NumMarkers	Units	OrigDataRate	OrigDataStartFrame	OrigNumFrames
200	200	4	48	mm	200	1001	2000
Frame#	Time	racr			lacr			c7			jug			rlel			rdr			llel			ldr			s2			lic			ric			lasi			rasi			rpsi			lpsi			rgt			lgt			rth1			rth2			rth3			rth4			rlfc			rmfc			rsh1			rsh2			rsh3			rsh4			rlmal			rcal			rtoe			rmt5			lth1			lth2			lth4			lth3			llfc			lmfc			llmal			lcal			lmt5			lsh1			lsh2			lsh3			lsh4			ltoe			SBIKE			LBIKE			RBIKE			
		X1	Y1	Z1	X2	Y2	Z2	X3	Y3	Z3	X4	Y4	Z4	X5	Y5	Z5	X6	Y6	Z6	X7	Y7	Z7	X8	Y8	Z8	X9	Y9	Z9	X10	Y10	Z10	X11	Y11	Z11	X12	Y12	Z12	X13	Y13	Z13	X14	Y14	Z14	X15	Y15	Z15	X16	Y16	Z16	X17	Y17	Z17	X18	Y18	Z18	X19	Y19	Z19	X20	Y20	Z20	X21	Y21	Z21	X22	Y22	Z22	X23	Y23	Z23	X24	Y24	Z24	X25	Y25	Z25	X26	Y26	Z26	X27	Y27	Z27	X28	Y28	Z28	X29	Y29	Z29	X30	Y30	Z30	X31	Y31	Z31	X32	Y32	Z32	X33	Y33	Z33	X34	Y34	Z34	X35	Y35	Z35	X36	Y36	Z36	X37	Y37	Z37	X38	Y38	Z38	X39	Y39	Z39	X40	Y40	Z40	X41	Y41	Z41	X42	Y42	Z42	X43	Y43	Z43	X44	Y44	Z44	X45	Y45	Z45	X46	Y46	Z46	X47	Y47	Z47	X48	Y48	Z48	
1001	5.0050	514.544209	1311.370283	-73.611651	522.403527	1289.107492	-364.186267	522.505363	1354.112498	-223.765141	496.256913	1197.844624	-202.625760	507.988116	1057.075985	35.159231	708.818218	929.475350	-44.864771	510.200228	1042.806124	-481.561008	707.781963	922.919064	-411.002196	-27.642794	1152.402095	-223.720435	135.287885	1102.796716	-376.608861	114.607924	1130.937018	-54.969085	149.384836	1052.571911	-345.903896	143.341080	1088.607116	-87.434815	0.329256	1190.442394	-192.744984	2.399534	1185.552378	-251.817675	98.311065	1070.487298	-17.813721	92.407549	1029.839532	-411.831969	205.318882	996.772621	-13.008553	291.009510	967.915908	-23.247101	348.421626	903.849151	-26.845919	306.550000	996.646775	-43.806961	411.156823	815.553695	-54.514335	397.849743	788.660662	-162.592772	372.355724	695.226408	-29.489917	357.389222	610.863640	-50.485548	306.733097	540.522032	-49.434751	376.741340	606.715100	-84.869581	261.765878	468.235265	-54.941394	197.277996	436.294548	-102.666919	472.077411	405.031014	-94.976627	372.387078	390.977297	-28.378869	142.415012	919.976438	-424.187800	211.514379	866.784908	-425.167391	240.642495	888.278214	-417.075897	245.403784	784.019568	-422.504611	279.456994	674.517991	-403.237512	285.951846	663.164638	-286.040659	46.493804	393.461990	-365.963564	-16.977587	419.675923	-316.543898	86.009687	254.685669	-396.621242	220.664733	583.090539	-416.790492	183.729615	509.381016	-389.936937	112.231906	457.148351	-382.583634	206.629398	498.210833	-359.397301	152.127254	194.864904	-341.269085	-204.573011	867.424221	-202.876717	-52.261766	83.676925	-410.353520	-50.654007	80.100647	-12.895728	
1002	5.0100	516.484322	1309.688112	-73.483561	522.131058	1288.120367	-364.797149	523.876890	1352.930069	-223.944166	496.213885	1196.859731	-203.098238	508.607491	1055.005436	35.563907	709.075879	928.676226	-44.318833	509.119502	1041.102768	-480.940982	707.778096	922.784473	-410.272003	-26.775015	1150.961441	-222.789259	136.210914	1102.084329	-376.089534	115.934835	1127.237664	-54.046564	150.642511	1051.961243	-346.455649	144.730778	1085.418644	-87.075212	1.298629	1188.579607	-191.333365	3.333043	1184.149422	-250.398285	99.007541	1065.655282	-17.847449	93.977649	1030.387042	-411.893075	205.553215	990.338045	-12.924021	290.530975	959.419876	-22.583876	345.700699	893.092359	-27.058741	306.406858	987.327809	-43.048239	406.679010	803.534838	-53.414653	393.477875	776.388453	-160.555034	369.279886	683.137196	-29.297637	356.661319	598.359092	-50.572085	307.035763	527.175443	-50.084705	375.768151	595.224932	-85.072278	264.091939	455.545568	-55.386400	200.660701	423.463589	-102.582715	475.109394	395.107373	-94.809333	375.403978	380.022343	-28.427952	145.701928	921.900318	-424.514991	215.939271	870.185225	-424.856787	244.414990	892.080689	-415.898284	251.491289	788.066133	-423.153450	285.587226	678.658232	-404.062530	291.894620	666.282273	-287.329099	45.806434	403.746126	-365.990575	-17.235998	430.981157	-316.468914	83.102987	264.586971	-396.538893	224.655817	588.540924	-417.471899	185.985396	515.960657	-390.334755	113.085335	465.524374	-382.754957	208.531421	504.417362	-359.772661	148.192245	203.767339	-341.020027	-204.245516	867.459672	-202.718447	-52.201572	83.677772	-410.310206	-50.622843	80.052957	-12.854978	
1003	5.0150	518.479798	1307.953720	-73.138524	521.913241	1287.243474	-365.236368	525.122362	1351.740150	-224.003973	496.568590	1195.788411	-203.419310	509.405922	1053.220361	36.281929	709.431475	927.882146	-43.807123	508.056252	1039.445378	-480.186175	707.891394	922.732757	-409.467339	-26.494649	1149.249168	-220.425826	137.140744	1101.537893	-375.615159	117.030889	1123.318875	-53.228507	151.572056	1051.337157	-346.133977	145.771659	1081.927513	-86.801472	2.301788	1186.714133	-189.892050	4.219250	1182.806401	-248.872129	99.583988	1060.800121	-17.872433	95.802345	1031.075609	-411.935397	205.730319	983.848733	-12.157454	289.753209	950.819920	-21.798089	343.879580	882.779436	-27.507849	306.563964	978.640426	-42.101510	402.022696	791.887401	-52.217521	389.328288	764.758803	-159.636376	365.660884	671.229642	-28.956750	355.460001	586.426721	-50.253080	307.300176	514.129054	-50.555662	374.761491	583.831276	-84.934159	265.764508	443.437505	-55.491948	202.168126	410.915185	-103.111138	477.581897	384.820085	-94.695565	377.758285	369.029768	-28.460005	149.220186	924.035440	-424.944633	220.535548	873.855573	-424.613936	248.350492	896.157995	-414.791111	257.812695	792.518989	-423.901942	291.871703	683.269323	-404.844527	298.189248	669.650694	-288.875794	45.784661	414.209171	-366.047951	-16.835283	442.645558	-316.467517	80.772024	274.675581	-396.379372	229.118837	594.262860	-418.220062	188.643126	522.835627	-390.814922	114.553037	474.170132	-382.934244	210.928735	510.938483	-360.160698	144.968716	212.715242	-340.834771	-204.051934	867.456692	-202.640939	-52.092273	83.700766	-410.307215	-50.549912	79.999640	-12.823672	
1004	5.0200	520.504950	1306.269944	-72.595544	521.612957	1286.093617	-364.917924	526.171038	1350.613247	-223.823833	497.268967	1194.687327	-203.476336	510.429056	1051.504705	37.167651	709.837260	927.255728	-43.507771	507.273197	1037.882160	-479.324165	708.141415	922.723194	-408.816696	-25.450318	1147.669229	-219.662683	138.118650	1101.279258	-375.147572	117.917741	1119.384689	-52.545901	152.428317	1050.541110	-345.724048	146.554154	1078.479218	-86.760138	3.138256	1185.044025	-188.157464	5.090406	1181.428175	-247.379652	100.082815	1055.732774	-17.941889	97.787956	1031.835539	-411.875450	205.580465	977.098395	-11.504395	288.675677	942.297786	-20.830568	341.121791	872.875046	-26.952737	306.216261	969.619011	-40.825584	397.199059	780.246518	-50.935845	385.459803	753.894059	-157.782099	362.140240	659.773033	-28.716731	353.936498	574.855927	-50.076869	307.175305	501.627650	-50.940745	373.559744	572.838135	-84.654837	267.221216	431.477039	-55.626483	203.877994	399.013646	-103.165874	479.440658	374.284316	-94.546351	379.678708	358.029535	-28.560869	152.908862	926.484062	-425.261459	225.264219	877.759051	-424.336339	252.478869	900.572387	-413.641273	264.255550	797.295486	-424.709481	298.443020	688.327226	-405.746726	304.632785	673.479049	-290.529348	46.487481	424.816275	-366.232699	-15.805023	454.259256	-316.601774	79.189487	284.731534	-396.312086	233.824456	600.353233	-419.026624	191.768065	529.971073	-391.335087	116.584769	483.010369	-383.273610	213.685479	517.699311	-360.498334	142.352375	222.024677	-340.663890	-203.939370	867.479183	-202.641498	-51.990199	83.709156	-410.287090	-50.488820	80.011027	-12.806729	
